<svg width="110" height="27" fill="none" xmlns="http://www.w3.org/2000/svg"><path d="M100.139 10.07h-1.424v6.852h1.424c1.883 0 2.736-1.126 2.736-3.41 0-2.284-.861-3.442-2.736-3.442z" fill="#fff"/><path d="M83 6.75a3.375 3.375 0 013.375-3.375h20.25A3.372 3.372 0 01110 6.75v13.5a3.375 3.375 0 01-3.375 3.375h-20.25A3.375 3.375 0 0183 20.25V6.75zm8.748 7.371c1.09 0 1.78.638 1.789 1.519.013.906-.72 1.55-1.833 1.55-1.009-.006-1.75-.548-1.802-1.275h-1.84c.051 1.542 1.335 2.848 3.634 2.848 2.092 0 3.856-1.113 3.834-3.034-.022-1.608-1.26-2.329-2.18-2.416v-.105c.742-.118 1.898-.89 1.87-2.32-.023-1.53-1.35-2.65-3.465-2.641-2.21.008-3.448 1.238-3.5 2.818h1.861c.037-.66.647-1.267 1.58-1.267.897 0 1.566.556 1.566 1.372.006.808-.647 1.409-1.566 1.409h-1.067v1.542h1.119zm4.965 4.441h3.694c3.054 0 4.531-1.868 4.531-5.087 0-3.196-1.453-5.036-4.531-5.036h-3.694v10.123zM1.232 7.608V19h2v-4.384h3.216c2.304 0 3.696-1.376 3.696-3.536 0-2.384-1.616-3.472-3.968-3.472H1.232zm2 1.664H5.84c1.264 0 2.352.384 2.352 1.856 0 1.344-.88 1.872-2.176 1.872H3.232V9.272zm8.624-1.664V19h1.984v-4.704h2.656c1.936 0 2.384.64 2.496 2.432.064 1.056.08 1.84.368 2.272h2.144c-.464-.512-.496-1.472-.608-2.832-.096-1.168-.24-2.272-1.696-2.592 1.2-.416 1.888-1.424 1.888-2.8 0-2.352-1.792-3.168-3.84-3.168h-5.392zM13.84 9.24h2.896c1.2 0 2.368.24 2.368 1.744 0 1.632-1.312 1.824-2.624 1.824h-2.64V9.24zm14.21-1.904c-3.489 0-5.505 2.624-5.505 5.968 0 3.552 2.208 5.968 5.472 5.968 3.248 0 5.473-2.416 5.473-5.968 0-3.536-2.225-5.968-5.44-5.968zm-.033 1.68c2.113 0 3.457 1.664 3.457 4.272 0 2.608-1.345 4.304-3.425 4.304-2.143 0-3.488-1.664-3.488-4.32 0-2.576 1.36-4.256 3.456-4.256zm7.277-1.408V19h4.448c1.792 0 2.752-.32 3.696-1.264 1.232-1.232 1.6-2.928 1.6-4.624 0-1.824-.592-3.36-1.68-4.336-1.088-.976-2.32-1.168-3.728-1.168h-4.336zm1.984 1.696h2.224c2.496 0 3.536 1.568 3.536 3.904s-.736 4.112-3.408 4.112h-2.352V9.304zm18.81-1.696h-2v6.72c0 1.936-.335 3.248-2.607 3.248-1.792 0-2.736-.864-2.736-2.624V7.608h-2v6.944c0 3.152 1.472 4.672 4.704 4.672 3.072 0 4.64-1.504 4.64-4.64V7.608zm12.06 7.056h-2c-.209 1.68-1.056 2.912-2.912 2.912-2.432 0-3.36-2.16-3.36-4.272 0-2.096.976-4.256 3.376-4.256 1.471 0 2.544.816 2.815 2.192h1.985c-.385-2.64-2.497-3.888-4.769-3.888-3.456 0-5.424 2.72-5.424 5.952 0 3.6 2.112 5.968 5.328 5.968 2.849 0 4.752-1.84 4.96-4.608zm9.962-7.056h-9.264v1.728h3.632V19h2V9.336h3.632V7.608z" fill="#fff"/></svg>